<svg xmlns="http://www.w3.org/2000/svg" version="1.1" xmlns:xlink="http://www.w3.org/1999/xlink" xmlns:svgjs="http://svgjs.dev/svgjs" width="1500" height="1500" viewBox="0 0 1500 1500"><g transform="matrix(1,0,0,1,-0.323615160350073,-0.3236151603499593)"><svg viewBox="0 0 343 343" data-background-color="#a44a0c" preserveAspectRatio="xMidYMid meet" height="1500" width="1500" xmlns="http://www.w3.org/2000/svg" xmlns:xlink="http://www.w3.org/1999/xlink"><g id="tight-bounds" transform="matrix(1,0,0,1,0.0740000000000407,0.07400000000001228)"><svg viewBox="0 0 342.85155851775386 342.85155851775386" height="342.85155851775386" width="342.85155851775386"><g><svg></svg></g><g><svg viewBox="0 0 342.85155851775386 342.85155851775386" height="342.85155851775386" width="342.85155851775386"><g><path d="M0 171.426c0-94.676 76.75-171.426 171.426-171.426 94.676 0 171.426 76.75 171.426 171.426 0 94.676-76.75 171.426-171.426 171.426-94.676 0-171.426-76.75-171.426-171.426zM171.426 338.518c92.283 0 167.093-74.81 167.092-167.092 0-92.283-74.81-167.093-167.092-167.093-92.283 0-167.093 74.81-167.093 167.093 0 92.283 74.81 167.093 167.093 167.092z" data-fill-palette-color="tertiary" fill="#C5D86D" stroke="transparent"></path><ellipse rx="164.56874808852186" ry="164.56874808852186" cx="171.42577925887693" cy="171.42577925887693" fill="#C5D86D" stroke="transparent" stroke-width="0" fill-opacity="1" data-fill-palette-color="tertiary"></ellipse></g><g transform="matrix(1,0,0,1,64.84655864529837,108.52698760797803)"><svg viewBox="0 0 213.1584412271571 125.7975833017978" height="125.7975833017978" width="213.1584412271571"><g><svg viewBox="0 0 213.1584412271571 125.7975833017978" height="125.7975833017978" width="213.1584412271571"><g><svg viewBox="0 0 213.1584412271571 125.7975833017978" height="125.7975833017978" width="213.1584412271571"><g transform="matrix(1,0,0,1,0,77.74795322925682)"><svg viewBox="0 0 213.1584412271571 48.049630072540985" height="48.049630072540985" width="213.1584412271571"><g id="textblocktransform"><svg viewBox="0 0 213.1584412271571 48.049630072540985" height="48.049630072540985" width="213.1584412271571" id="textblock"><g><svg viewBox="0 0 213.1584412271571 48.049630072540985" height="48.049630072540985" width="213.1584412271571"><g transform="matrix(1,0,0,1,0,0)"><svg width="213.1584412271571" viewBox="2.71 -33.33 149.70999999999998 33.75" height="48.049630072540985" data-palette-color="#a44a0c"><path d="M7.08 0L3.33 0 3.33-20.83 7.08-20.83 7.08 0ZM5.21-24.58L5.21-24.58Q4.17-24.58 3.44-25.31 2.71-26.04 2.71-27.08L2.71-27.08Q2.71-28.16 3.44-28.87 4.17-29.58 5.21-29.58L5.21-29.58Q6.28-29.58 7-28.87 7.71-28.16 7.71-27.08L7.71-27.08Q7.71-26.04 7-25.31 6.28-24.58 5.21-24.58ZM17.5 0L13.75 0 13.75-20.83 17.22-20.83 17.22-17.85Q18.37-19.55 20.12-20.4 21.87-21.25 23.82-21.25L23.82-21.25Q25.94-21.25 27.71-20.26 29.48-19.27 30.55-17.5L30.55-17.5Q31.77-19.38 33.7-20.31 35.62-21.25 37.78-21.25L37.78-21.25Q40.14-21.25 42.1-20.14 44.06-19.03 45.22-17.03 46.39-15.03 46.39-12.33L46.39-12.33 46.39 0 42.64 0 42.64-11.88Q42.64-14.72 41.02-16.2 39.41-17.67 37.29-17.67L37.29-17.67Q35.97-17.67 34.74-17.08 33.5-16.49 32.72-15.24 31.94-13.99 31.94-11.98L31.94-11.98 31.94 0 28.19 0 28.19-11.88Q28.19-13.85 27.41-15.14 26.63-16.42 25.4-17.07 24.16-17.71 22.84-17.71L22.84-17.71Q21.56-17.71 20.33-17.12 19.09-16.53 18.3-15.28 17.5-14.03 17.5-11.98L17.5-11.98 17.5 0ZM61.56 0.28L61.56 0.28Q58.71 0.28 56.35-1.16 53.99-2.6 52.58-5.03 51.18-7.47 51.18-10.42L51.18-10.42Q51.18-13.37 52.58-15.8 53.99-18.23 56.35-19.67 58.71-21.11 61.56-21.11L61.56-21.11Q63.71-21.11 65.6-20.31 67.5-19.51 68.88-18.09L68.88-18.09 68.88-20.83 72.36-20.83 72.36 0 68.88 0 68.88-2.74Q67.5-1.35 65.6-0.54 63.71 0.28 61.56 0.28ZM62.04-3.13L62.04-3.13Q64.02-3.13 65.64-4.11 67.25-5.1 68.21-6.75 69.16-8.4 69.16-10.42L69.16-10.42Q69.16-12.43 68.21-14.08 67.25-15.73 65.64-16.72 64.02-17.71 62.04-17.71L62.04-17.71Q60.06-17.71 58.45-16.72 56.84-15.73 55.88-14.08 54.93-12.43 54.93-10.42L54.93-10.42Q54.93-8.4 55.88-6.75 56.84-5.1 58.45-4.11 60.06-3.13 62.04-3.13ZM82.77 0L79.02 0 79.02-20.83 82.49-20.83 82.49-17.01Q83.6-18.85 85.44-19.95 87.28-21.04 89.82-21.04L89.82-21.04 90.76-17.29Q90.1-17.5 89.23-17.5L89.23-17.5Q86.31-17.5 84.54-15.64 82.77-13.78 82.77-10.35L82.77-10.35 82.77 0ZM112.98 0L108.22 0 98.81-11.46 106.55-20.83 110.89-20.83 103.29-11.74 112.98 0ZM98.39 0L94.64 0 94.64-33.33 98.39-33.33 98.39 0ZM126.45 0.42L126.45 0.42Q123.18 0.42 120.6-1.04 118.01-2.5 116.53-5.02 115.06-7.53 115.06-10.63L115.06-10.63Q115.06-13.58 116.48-15.99 117.9-18.4 120.32-19.83 122.73-21.25 125.65-21.25L125.65-21.25Q128.53-21.25 130.93-19.88 133.32-18.51 134.74-16.18 136.17-13.85 136.17-10.9L136.17-10.9 136.17-9.38 122.56-9.38Q121.65-9.38 120.72-9.44 119.78-9.51 118.88-9.65L118.88-9.65Q119.26-6.88 121.39-5 123.53-3.13 126.48-3.13L126.48-3.13Q128.46-3.13 130.16-4.03 131.86-4.93 132.9-6.42L132.9-6.42 133.95-2.15Q132.45-0.94 130.53-0.26 128.6 0.42 126.45 0.42ZM118.77-12.19L118.77-12.19Q120.65-12.5 122.56-12.5L122.56-12.5 129.47-12.5Q130.23-12.5 130.98-12.45 131.72-12.4 132.49-12.33L132.49-12.33Q132-14.76 130.06-16.34 128.11-17.92 125.65-17.92L125.65-17.92Q123.11-17.92 121.2-16.23 119.29-14.55 118.77-12.19ZM147.35 0L143.6 0 143.6-17.71 138.87-17.71 138.87-20.83 143.7-20.83 143.7-27.78 147.24-27.78 147.24-20.83 152.42-20.83 152.42-17.71 147.35-17.71 147.35 0Z" opacity="1" transform="matrix(1,0,0,1,0,0)" fill="#0D1321" class="wordmark-text-0" data-fill-palette-color="quaternary" id="text-0"></path></svg></g></svg></g></svg></g></svg></g><g transform="matrix(1,0,0,1,66.90829049425014,0)"><svg viewBox="0 0 79.34186023865685 66.40458876025164" height="66.40458876025164" width="79.34186023865685"><g><svg xmlns="http://www.w3.org/2000/svg" xmlns:xlink="http://www.w3.org/1999/xlink" version="1.1" x="0" y="0" viewBox="10.7 17.1 78.5 65.69999999999999" enable-background="new 0 0 100 100" xml:space="preserve" height="66.40458876025164" width="79.34186023865685" class="icon-icon-0" data-fill-palette-color="quaternary" id="icon-0"><g fill="#0D1321" data-fill-palette-color="quaternary"><path d="M73.2 17.1H26.7L10.7 33.9V44.2C10.7 47.7 12.3 50.8 14.7 52.7V82.8H85.2V52.8C87.6 50.9 89.2 47.8 89.2 44.3V34zM71.4 21.1L83.3 33.9H73.9L66.9 21.1zM29.7 37.9H40.5V44.2C40.5 47.8 38.1 50.7 35.1 50.7S29.7 47.8 29.7 44.2zM44.6 37.9H55.4V44.2C55.4 47.8 53 50.7 50 50.7S44.6 47.8 44.6 44.2zM59.5 37.9H70.3V44.2C70.3 47.8 67.9 50.7 64.9 50.7S59.5 47.8 59.5 44.2zM62.4 21.1L63.5 23.2 69.4 33.9H59.2L56.9 21.1zM52.8 21.1L55.1 33.9H44.9L47.4 21.1zM38.3 21.1H43.2L41 32.5 40.7 33.9H30.6L34.6 27.3zM28.5 21.1H33.7L26 33.9H16.7zM25.6 37.9V44.2C25.6 47.8 23.2 50.7 20.2 50.7S14.8 47.8 14.8 44.2V37.9zM42.1 78.9V67.4C42.1 65.3 43.4 63.5 45 63.5H54.3C55.9 63.5 57.2 65.3 57.2 67.4V78.9zM81.3 78.9H61.3V67.4C61.3 63 58.2 59.5 54.4 59.5H45C41.2 59.5 38.1 63.1 38.1 67.4V78.9H18.7V54.6C19.2 54.7 19.7 54.7 20.2 54.7 23.2 54.7 25.9 53.1 27.6 50.6 29.3 53.1 32 54.7 35 54.7S40.7 53.1 42.4 50.6C44.1 53.1 46.8 54.7 49.8 54.7S55.5 53.1 57.2 50.6C58.9 53.1 61.6 54.7 64.6 54.7S70.3 53.1 72 50.6C73.7 53.1 76.4 54.7 79.4 54.7 79.9 54.7 80.4 54.6 80.9 54.6V78.9zM85.2 44.3C85.2 47.9 82.8 50.8 79.8 50.8S74.4 47.9 74.4 44.3V38H85.2z" fill="#0D1321" data-fill-palette-color="quaternary"></path></g></svg></g></svg></g><g></g></svg></g></svg></g></svg></g></svg></g><defs></defs></svg><rect width="342.85155851775386" height="342.85155851775386" fill="none" stroke="none" visibility="hidden"></rect></g></svg></g></svg>