<svg xmlns="http://www.w3.org/2000/svg" xmlns:xlink="http://www.w3.org/1999/xlink" version="1.1" x="0" y="0" viewBox="10.7 17.1 78.5 65.69999999999999" enable-background="new 0 0 100 100" xml:space="preserve" height="66.40458876025164" width="79.34186023865685" class="icon-icon-0" data-fill-palette-color="quaternary" id="icon-0">
  <g fill="#c5d86d" data-fill-palette-color="quaternary">
    <path d="M73.2 17.1H26.7L10.7 33.9V44.2C10.7 47.7 12.3 50.8 14.7 52.7V82.8H85.2V52.8C87.6 50.9 89.2 47.8 89.2 44.3V34zM71.4 21.1L83.3 33.9H73.9L66.9 21.1zM29.7 37.9H40.5V44.2C40.5 47.8 38.1 50.7 35.1 50.7S29.7 47.8 29.7 44.2zM44.6 37.9H55.4V44.2C55.4 47.8 53 50.7 50 50.7S44.6 47.8 44.6 44.2zM59.5 37.9H70.3V44.2C70.3 47.8 67.9 50.7 64.9 50.7S59.5 47.8 59.5 44.2zM62.4 21.1L63.5 23.2 69.4 33.9H59.2L56.9 21.1zM52.8 21.1L55.1 33.9H44.9L47.4 21.1zM38.3 21.1H43.2L41 32.5 40.7 33.9H30.6L34.6 27.3zM28.5 21.1H33.7L26 33.9H16.7zM25.6 37.9V44.2C25.6 47.8 23.2 50.7 20.2 50.7S14.8 47.8 14.8 44.2V37.9zM42.1 78.9V67.4C42.1 65.3 43.4 63.5 45 63.5H54.3C55.9 63.5 57.2 65.3 57.2 67.4V78.9zM81.3 78.9H61.3V67.4C61.3 63 58.2 59.5 54.4 59.5H45C41.2 59.5 38.1 63.1 38.1 67.4V78.9H18.7V54.6C19.2 54.7 19.7 54.7 20.2 54.7 23.2 54.7 25.9 53.1 27.6 50.6 29.3 53.1 32 54.7 35 54.7S40.7 53.1 42.4 50.6C44.1 53.1 46.8 54.7 49.8 54.7S55.5 53.1 57.2 50.6C58.9 53.1 61.6 54.7 64.6 54.7S70.3 53.1 72 50.6C73.7 53.1 76.4 54.7 79.4 54.7 79.9 54.7 80.4 54.6 80.9 54.6V78.9zM85.2 44.3C85.2 47.9 82.8 50.8 79.8 50.8S74.4 47.9 74.4 44.3V38H85.2z" fill="#c5d86d" data-fill-palette-color="quaternary"></path>
  </g>
</svg>
